HIERARCHY
ROOT Hips
{
	OFFSET 0.000000 121.760803 0.000000
	CHANNELS 6 Xposition Yposition Zposition Xrotation Yrotation Zrotation 
	JOINT Spine
	{
		OFFSET 0.072000 7.257294 -0.789700
		CHANNELS 3 Xrotation Yrotation Zrotation
		JOINT Spine1
		{
			OFFSET 0.000000 12.508769 -0.658067
			CHANNELS 3 Xrotation Yrotation Zrotation
			JOINT Spine1_split
			{
				OFFSET 0.000000 12.508769 -0.658067
				CHANNELS 3 Xrotation Yrotation Zrotation
				JOINT Spine2
				{
					OFFSET 0.000000 12.508769 -0.658067
					CHANNELS 3 Xrotation Yrotation Zrotation
					JOINT Neck
					{
						OFFSET 0.000000 14.033295 7.520400
						CHANNELS 3 Xrotation Yrotation Zrotation
						JOINT Head
						{
							OFFSET 0.000000 8.198502 5.703100
							CHANNELS 3 Xrotation Yrotation Zrotation
							JOINT HeadTop_End
							{
								OFFSET 0.000000 17.760803 13.332701
								CHANNELS 3 Xrotation Yrotation Zrotation
								End Site
								{
									OFFSET 0.000000 0.000000 0.000000
								}
							}
						}
					}
					JOINT LeftShoulder
					{
						OFFSET 6.292450 5.785301 -0.669000
						CHANNELS 3 Xrotation Yrotation Zrotation
						JOINT LeftShoulder_split
						{
							OFFSET 6.292450 5.785301 -0.669000
							CHANNELS 3 Xrotation Yrotation Zrotation
							JOINT LeftArm
							{
								OFFSET 13.907140 -6.093903 1.965100
								CHANNELS 3 Xrotation Yrotation Zrotation
								JOINT LeftForeArm
								{
									OFFSET 34.140198 0.000000 0.000000
									CHANNELS 3 Xrotation Yrotation Zrotation
									JOINT LeftHand
									{
										OFFSET 40.960209 0.000000 0.000000
										CHANNELS 3 Xrotation Yrotation Zrotation
										JOINT LeftHandThumb1
										{
											OFFSET 10.006996 -7.170425 9.573125
											CHANNELS 3 Xrotation Yrotation Zrotation
											JOINT LeftHandThumb2
											{
												OFFSET 1.835007 -1.059448 1.059443
												CHANNELS 3 Xrotation Yrotation Zrotation
												JOINT LeftHandThumb3
												{
													OFFSET 2.112267 -1.219513 1.219518
													CHANNELS 3 Xrotation Yrotation Zrotation
													JOINT LeftHandThumb4
													{
														OFFSET 4.843811 -2.796570 2.796576
														CHANNELS 3 Xrotation Yrotation Zrotation
														End Site
														{
															OFFSET 0.000000 0.000000 0.000000
														}
													}
												}
											}
										}
										JOINT LeftHandIndex1
										{
											OFFSET 18.389847 -0.922348 4.596882
											CHANNELS 3 Xrotation Yrotation Zrotation
											JOINT LeftHandIndex2
											{
												OFFSET 4.711273 0.000000 0.000000
												CHANNELS 3 Xrotation Yrotation Zrotation
												JOINT LeftHandIndex3
												{
													OFFSET 2.886131 0.000000 0.000000
													CHANNELS 3 Xrotation Yrotation Zrotation
													JOINT LeftHandIndex4
													{
														OFFSET 6.145912 0.000000 0.000000
														CHANNELS 3 Xrotation Yrotation Zrotation
														End Site
														{
															OFFSET 0.000000 0.000000 0.000000
														}
													}
												}
											}
										}
										JOINT LeftHandMiddle1
										{
											OFFSET 18.013008 0.000000 0.000000
											CHANNELS 3 Xrotation Yrotation Zrotation
											JOINT LeftHandMiddle2
											{
												OFFSET 4.946693 0.000000 0.000000
												CHANNELS 3 Xrotation Yrotation Zrotation
												JOINT LeftHandMiddle3
												{
													OFFSET 3.342232 0.000000 0.000000
													CHANNELS 3 Xrotation Yrotation Zrotation
													JOINT LeftHandMiddle4
													{
														OFFSET 4.461754 0.000000 0.000000
														CHANNELS 3 Xrotation Yrotation Zrotation
														End Site
														{
															OFFSET 0.000000 0.000000 0.000000
														}
													}
												}
											}
										}
										JOINT LeftHandRing1
										{
											OFFSET 15.849892 -0.102921 -4.126150
											CHANNELS 3 Xrotation Yrotation Zrotation
											JOINT LeftHandRing2
											{
												OFFSET 3.527054 0.000000 0.000000
												CHANNELS 3 Xrotation Yrotation Zrotation
												JOINT LeftHandRing3
												{
													OFFSET 2.961098 0.000000 0.000000
													CHANNELS 3 Xrotation Yrotation Zrotation
													JOINT LeftHandRing4
													{
														OFFSET 4.927200 0.000000 0.000000
														CHANNELS 3 Xrotation Yrotation Zrotation
														End Site
														{
															OFFSET 0.000000 0.000000 0.000000
														}
													}
												}
											}
										}
										JOINT LeftHandPinky1
										{
											OFFSET 12.791824 -0.832031 -6.799156
											CHANNELS 3 Xrotation Yrotation Zrotation
											JOINT LeftHandPinky2
											{
												OFFSET 3.327133 0.000000 0.000000
												CHANNELS 3 Xrotation Yrotation Zrotation
												JOINT LeftHandPinky3
												{
													OFFSET 3.014900 0.000000 0.000000
													CHANNELS 3 Xrotation Yrotation Zrotation
													JOINT LeftHandPinky4
													{
														OFFSET 5.847786 0.000000 0.000000
														CHANNELS 3 Xrotation Yrotation Zrotation
														End Site
														{
															OFFSET 0.000000 0.000000 0.000000
														}
													}
												}
											}
										}
									}
								}
							}
						}
					}
					JOINT RightShoulder
					{
						OFFSET -6.292450 5.785301 -0.669000
						CHANNELS 3 Xrotation Yrotation Zrotation
						JOINT RightShoulder_split
						{
							OFFSET -6.292450 5.785301 -0.669000
							CHANNELS 3 Xrotation Yrotation Zrotation
							JOINT RightArm
							{
								OFFSET -13.907140 -6.093903 1.965100
								CHANNELS 3 Xrotation Yrotation Zrotation
								JOINT RightForeArm
								{
									OFFSET -34.140198 0.000000 0.000000
									CHANNELS 3 Xrotation Yrotation Zrotation
									JOINT RightHand
									{
										OFFSET -40.960209 0.000000 0.000000
										CHANNELS 3 Xrotation Yrotation Zrotation
										JOINT RightHandThumb1
										{
											OFFSET -10.007050 -7.170456 9.573117
											CHANNELS 3 Xrotation Yrotation Zrotation
											JOINT RightHandThumb2
											{
												OFFSET -1.835007 -1.059448 1.059443
												CHANNELS 3 Xrotation Yrotation Zrotation
												JOINT RightHandThumb3
												{
													OFFSET -2.112267 -1.219513 1.219518
													CHANNELS 3 Xrotation Yrotation Zrotation
													JOINT RightHandThumb4
													{
														OFFSET -4.843834 -2.796585 2.796590
														CHANNELS 3 Xrotation Yrotation Zrotation
														End Site
														{
															OFFSET 0.000000 0.000000 0.000000
														}
													}
												}
											}
										}
										JOINT RightHandIndex1
										{
											OFFSET -18.389870 -0.922424 4.596786
											CHANNELS 3 Xrotation Yrotation Zrotation
											JOINT RightHandIndex2
											{
												OFFSET -4.711273 0.000000 0.000000
												CHANNELS 3 Xrotation Yrotation Zrotation
												JOINT RightHandIndex3
												{
													OFFSET -2.886131 0.000000 0.000000
													CHANNELS 3 Xrotation Yrotation Zrotation
													JOINT RightHandIndex4
													{
														OFFSET -6.145920 0.000000 0.000000
														CHANNELS 3 Xrotation Yrotation Zrotation
														End Site
														{
															OFFSET 0.000000 0.000000 0.000000
														}
													}
												}
											}
										}
										JOINT RightHandMiddle1
										{
											OFFSET -18.013008 0.000000 0.000000
											CHANNELS 3 Xrotation Yrotation Zrotation
											JOINT RightHandMiddle2
											{
												OFFSET -4.946693 0.000000 0.000000
												CHANNELS 3 Xrotation Yrotation Zrotation
												JOINT RightHandMiddle3
												{
													OFFSET -3.342232 0.000000 0.000000
													CHANNELS 3 Xrotation Yrotation Zrotation
													JOINT RightHandMiddle4
													{
														OFFSET -4.461754 0.000000 0.000000
														CHANNELS 3 Xrotation Yrotation Zrotation
														End Site
														{
															OFFSET 0.000000 0.000000 0.000000
														}
													}
												}
											}
										}
										JOINT RightHandRing1
										{
											OFFSET -15.849876 -0.102936 -4.126237
											CHANNELS 3 Xrotation Yrotation Zrotation
											JOINT RightHandRing2
											{
												OFFSET -3.527054 0.000000 0.000000
												CHANNELS 3 Xrotation Yrotation Zrotation
												JOINT RightHandRing3
												{
													OFFSET -2.961098 0.000000 0.000000
													CHANNELS 3 Xrotation Yrotation Zrotation
													JOINT RightHandRing4
													{
														OFFSET -4.927200 0.000000 0.000000
														CHANNELS 3 Xrotation Yrotation Zrotation
														End Site
														{
															OFFSET 0.000000 0.000000 0.000000
														}
													}
												}
											}
										}
										JOINT RightHandPinky1
										{
											OFFSET -12.791786 -0.832077 -6.799222
											CHANNELS 3 Xrotation Yrotation Zrotation
											JOINT RightHandPinky2
											{
												OFFSET -3.327133 0.000000 0.000000
												CHANNELS 3 Xrotation Yrotation Zrotation
												JOINT RightHandPinky3
												{
													OFFSET -3.014900 0.000000 0.000000
													CHANNELS 3 Xrotation Yrotation Zrotation
													JOINT RightHandPinky4
													{
														OFFSET -5.847786 0.000000 0.000000
														CHANNELS 3 Xrotation Yrotation Zrotation
														End Site
														{
															OFFSET 0.000000 0.000000 0.000000
														}
													}
												}
											}
										}
									}
								}
							}
						}
					}
				}
			}
		}
	}
	JOINT LeftUpLeg
	{
		OFFSET 13.026900 -6.336304 -1.092800
		CHANNELS 3 Xrotation Yrotation Zrotation
		JOINT LeftLeg
		{
			OFFSET 0.524474 -46.096886 9.782700
			CHANNELS 3 Xrotation Yrotation Zrotation
			JOINT LeftFoot
			{
				OFFSET -0.524474 -53.427422 -12.948200
				CHANNELS 3 Xrotation Yrotation Zrotation
				JOINT LeftToeBase
				{
					OFFSET 0.192200 -14.009700 16.364100
					CHANNELS 3 Xrotation Yrotation Zrotation
					JOINT LeftToe_End
					{
						OFFSET -1.784700 -0.561700 9.474800
						CHANNELS 3 Xrotation Yrotation Zrotation
						End Site
						{
							OFFSET 0.000000 0.000000 0.000000
						}
					}
				}
			}
		}
	}
	JOINT RightUpLeg
	{
		OFFSET -12.883000 -6.336304 -1.092800
		CHANNELS 3 Xrotation Yrotation Zrotation
		JOINT RightLeg
		{
			OFFSET -0.524587 -46.096825 9.782800
			CHANNELS 3 Xrotation Yrotation Zrotation
			JOINT RightFoot
			{
				OFFSET 0.524587 -53.427383 -12.948300
				CHANNELS 3 Xrotation Yrotation Zrotation
				JOINT RightToeBase
				{
					OFFSET -0.192200 -14.009700 16.364100
					CHANNELS 3 Xrotation Yrotation Zrotation
					JOINT RightToe_End
					{
						OFFSET 1.784700 -0.561700 9.474800
						CHANNELS 3 Xrotation Yrotation Zrotation
						End Site
						{
							OFFSET 0.000000 0.000000 0.000000
						}
					}
				}
			}
		}
	}
}
MOTION
Frames: 4
Frame Time: 0.016667
-27.748089 163.694794 40.396706 2.231629 -19.912182 0.464549 -1.332374 -0.173666 0.879834 -2.672069 -0.088747 -1.714353 0.000000 0.000000 0.000000 -2.672070 -0.088753 -1.714354 -29.250142 2.152609 0.925380 -6.741640 1.385354 2.203545 -0.000003 -0.000001 -0.000001 3.677176 6.194743 24.143607 0.000000 0.000000 0.000000 -59.663369 -29.699305 18.551125 331.726387 -50.304787 364.575636 9.712912 12.043596 4.406373 -18.855670 8.933428 3.057164 -10.184088 7.391066 11.736453 0.000000 -0.000013 -0.000014 -0.000001 0.000001 0.000003 -0.592716 -8.809715 -64.466870 -7.414304 -3.196008 -73.590275 -0.000007 -0.000005 -0.000002 -0.000001 -0.000001 -0.000002 -4.669418 -3.546348 -64.557507 -4.343536 -4.390808 -63.402242 -0.000003 -0.000003 -0.000006 -0.000000 -0.000000 -0.000002 -8.499387 6.196389 -65.422270 -0.143908 -6.140972 -71.299170 -0.000003 -0.000005 -0.000003 0.000000 -0.000000 -0.000001 -11.696397 6.569852 -64.444597 0.747960 -7.748550 -64.679760 0.000002 -0.000008 -0.000006 -0.000001 -0.000001 0.000001 -5.618869 -8.488128 -29.945267 0.000000 0.000000 0.000000 -79.202491 30.402108 25.861313 -28.766933 45.497352 -9.943814 18.101905 -7.770111 -17.702093 -9.927560 -3.135338 -3.423713 9.147227 -6.167978 1.841531 0.000000 -0.000001 -0.000017 0.000000 -0.000001 -0.000001 -5.800758 7.899904 47.461123 -1.705270 0.304395 43.209826 0.000004 -0.000000 -0.000014 0.000000 0.000000 -0.000000 -3.405846 2.123218 34.452410 -0.819711 0.602213 26.448273 -0.000003 -0.000003 0.000012 0.000000 -0.000000 -0.000001 -6.121038 -2.660818 25.197524 0.241172 1.204299 20.283551 -0.000002 0.000001 0.000009 0.000000 -0.000000 -0.000003 -8.974041 -11.015647 18.858282 0.726524 6.448858 30.513863 0.000001 -0.000000 -0.000003 -0.000000 0.000000 -0.000002 -21.595784 9.569727 4.812197 35.377450 6.189616 4.213242 23.823232 -0.548210 -4.055289 -0.000020 0.000000 -0.000019 0.000003 0.000000 -0.000000 -2.643030 -7.143565 -3.248890 22.003567 -20.870582 5.055609 30.260706 -3.076231 -0.378908 -0.613560 -0.783489 0.838809 0.000001 0.000004 -0.000004 
-27.896954 162.634552 41.146049 1.980150 -19.263029 0.221051 -1.418790 -0.227973 0.908183 -2.849546 -0.229106 -1.624431 0.000000 0.000000 0.000000 -2.849544 -0.229105 -1.624431 -27.415811 2.071721 -0.405984 -8.884818 0.776539 3.209524 0.000003 0.000001 0.000001 4.781805 6.071382 25.311125 0.000000 0.000000 0.000000 -58.312767 -25.193199 16.875546 334.030074 -55.829587 367.584389 10.718706 15.468659 -3.727588 -21.309475 8.848128 3.603944 -11.046026 7.810731 12.734295 -0.000000 -0.000009 -0.000012 -0.000003 -0.000004 -0.000002 -0.668650 -9.385955 -69.496984 -8.126665 -3.034137 -78.334408 -0.000006 -0.000006 0.000005 0.000000 0.000000 -0.000002 -5.910796 -3.911905 -68.776119 -4.727741 -4.456434 -66.846454 -0.000002 -0.000003 -0.000002 -0.000002 0.000001 0.000001 -9.746231 6.167384 -68.259667 -0.270668 -6.498676 -74.555770 -0.000003 -0.000005 -0.000003 0.000001 0.000001 0.000001 -13.460165 6.392949 -66.874532 0.796669 -7.975021 -66.777113 0.000001 -0.000006 -0.000009 0.000000 -0.000001 -0.000003 -3.148149 -6.622059 -28.188288 0.000000 0.000000 0.000000 -74.921192 31.517252 20.078717 -28.646418 45.441095 -7.798846 14.499168 -7.568619 -15.891506 -11.314175 -0.640392 -7.794858 7.524572 -9.236277 1.695806 0.000000 -0.000002 -0.000015 -0.000000 0.000001 0.000002 -6.559496 7.393442 54.528866 -2.449467 0.693826 50.819770 0.000005 0.000001 -0.000013 -0.000001 0.000001 0.000000 -5.103901 3.187940 44.972855 -1.503188 1.527323 37.885683 -0.000002 -0.000003 0.000012 0.000000 -0.000000 -0.000000 -7.748203 -2.737567 35.791738 0.247993 1.908886 31.704963 -0.000002 0.000002 0.000003 -0.000000 -0.000000 -0.000001 -9.849990 -10.151353 30.707233 1.148592 7.284876 39.051839 0.000001 -0.000001 -0.000001 -0.000000 -0.000000 0.000002 -22.382057 9.083950 4.585799 36.191622 7.968854 3.946082 26.870688 -0.418723 -2.847867 -0.000019 0.000001 -0.000022 0.000001 0.000000 0.000000 -3.850753 -7.412224 -3.781520 22.752170 -20.143838 4.975545 32.621626 -2.945341 -0.952720 -0.254728 0.048034 -0.222043 -0.000002 0.000001 -0.000003 
-28.027489 161.353546 41.877911 1.645532 -18.480923 -0.038449 -1.503335 -0.250496 0.922003 -3.020491 -0.300870 -1.519637 0.000000 0.000000 0.000000 -3.020490 -0.300877 -1.519638 -26.025208 2.006423 -1.891969 -10.487886 0.012928 4.301348 -0.000001 -0.000001 -0.000001 5.846717 6.266299 26.599547 0.000000 0.000000 0.000000 -57.037206 -19.937324 14.143161 336.297396 -62.699525 371.221710 12.075452 18.775987 -12.001252 -22.924205 8.761541 3.939453 -11.613938 8.069336 13.395161 -0.000001 -0.000012 -0.000015 -0.000001 0.000001 0.000001 -0.755090 -9.793368 -72.801675 -8.582116 -2.886287 -81.445225 -0.000007 -0.000007 -0.000007 0.000001 0.000001 0.000001 -6.750422 -4.067568 -71.547884 -4.980420 -4.484653 -69.106515 -0.000002 -0.000004 -0.000007 -0.000001 -0.000001 -0.000002 -10.571539 6.213377 -70.118565 -0.370429 -6.734657 -76.693981 -0.000002 -0.000005 -0.000004 -0.000001 0.000000 0.000002 -14.634862 6.353573 -68.460591 0.821188 -8.127446 -68.153922 0.000002 -0.000006 -0.000000 -0.000002 -0.000001 0.000002 -2.023506 -4.492271 -27.139999 0.000000 0.000000 0.000000 -68.184310 31.329425 12.866674 -29.783019 45.104073 -2.566856 9.883234 -7.225273 -16.008768 -12.809653 2.188565 -12.808836 5.561953 -12.734982 1.298108 0.000000 -0.000001 -0.000015 0.000000 0.000001 0.000000 -7.288527 6.738058 62.692339 -3.350646 0.967318 59.638842 0.000004 0.000001 -0.000013 -0.000001 0.000000 0.000001 -7.419776 3.777889 57.205532 -2.526059 2.313670 51.151007 -0.000004 -0.000002 0.000014 0.000000 0.000000 0.000000 -9.662695 -3.338280 48.032697 0.154354 2.763922 44.927137 -0.000002 0.000001 0.000006 0.000000 0.000000 0.000000 -11.600123 -9.546198 44.232213 1.459201 8.447051 48.947294 0.000001 -0.000000 -0.000002 0.000000 0.000000 0.000000 -22.994619 8.483665 4.601414 37.020763 9.889508 3.257605 29.791301 -0.258952 -1.341124 -0.000017 -0.000003 -0.000020 0.000006 -0.000000 0.000000 -4.982148 -7.372910 -4.070268 23.511393 -18.936834 4.675130 35.058097 -2.445487 -1.769403 -0.065633 0.012375 -0.057147 0.000002 0.000001 -0.000005 
-28.154116 159.940613 42.611744 1.243163 -17.548515 -0.314616 -1.640188 -0.231713 0.985657 -3.292606 -0.278831 -1.303055 0.000000 0.000000 0.000000 -3.292605 -0.278820 -1.303055 -24.829281 1.898691 -2.852156 -11.555614 -0.586096 4.627743 -0.000000 -0.000000 -0.000001 6.717991 6.329311 27.810085 0.000000 0.000000 0.000000 -55.092589 -13.574166 10.508933 339.071901 -71.280155 375.947272 13.106049 22.007766 -18.493770 -23.505075 8.724739 4.055235 -11.818378 8.158929 13.633699 -0.000000 -0.000014 -0.000015 0.000001 0.000001 0.000000 -0.793923 -9.944884 -73.989882 -8.742883 -2.825300 -82.562302 -0.000006 -0.000007 -0.000008 0.000000 0.000000 0.000002 -7.055845 -4.106884 -72.544027 -5.071180 -4.491932 -69.918420 -0.000002 -0.000003 -0.000004 -0.000001 0.000000 -0.000001 -10.868868 6.242540 -70.785615 -0.409523 -6.819523 -77.462459 -0.000003 -0.000005 -0.000003 -0.000001 0.000001 0.000001 -15.058819 6.352192 -69.028528 0.828514 -8.182918 -68.648660 0.000004 -0.000006 -0.000005 0.000000 -0.000002 -0.000006 -0.962622 -3.617263 -26.818758 0.000000 0.000000 0.000000 -63.904274 30.681131 10.710919 -28.415914 46.120398 -0.431021 6.073486 -6.296518 -14.958014 -14.232519 4.972265 -17.779607 3.459916 -16.185144 0.633626 0.000001 -0.000002 -0.000018 0.000001 0.000001 0.000002 -7.858107 6.046800 70.836151 -4.257026 1.049403 68.456718 0.000005 -0.000000 -0.000014 0.000000 -0.000000 0.000001 -9.917073 3.592951 69.474779 -3.708009 2.725237 64.428785 -0.000004 -0.000002 0.000014 -0.000000 0.000001 0.000002 -11.472249 -4.499111 60.238614 -0.069188 3.650690 58.140476 -0.000002 0.000002 0.000008 -0.000000 -0.000000 0.000003 -13.977430 -9.646190 57.544453 1.523868 9.778986 58.870753 0.000001 -0.000001 -0.000003 -0.000000 0.000000 -0.000002 -23.446830 8.297567 4.578649 37.749117 11.356624 2.836569 32.349514 0.149013 0.201559 -0.000033 0.000000 -0.000020 0.000001 0.000000 0.000000 -6.070272 -7.305855 -3.720958 24.174756 -18.226414 3.155897 37.386724 -1.284563 -1.592269 -0.000073 0.000006 0.000059 -0.000002 -0.000002 0.000003 
